<?xml version="1.0" encoding="utf-8"?>
<!-- Generator: Adobe Illustrator 22.1.0, SVG Export Plug-In . SVG Version: 6.00 Build 0)  -->
<svg version="1.1" id="Layer_1" xmlns="http://www.w3.org/2000/svg" xmlns:xlink="http://www.w3.org/1999/xlink" x="0px" y="0px"
	 viewBox="0 0 210 210" style="enable-background:new 0 0 210 210;" xml:space="preserve">
<style type="text/css">
	.st0{fill:url(#SVGID_1_);}
	.st1{fill:#F4F5FB;}
</style>
<linearGradient id="SVGID_1_" gradientUnits="userSpaceOnUse" x1="-0.42" y1="104.6882" x2="209.5695" y2="104.6882">
	<stop  offset="0" style="stop-color:#5B41EA"/>
	<stop  offset="1" style="stop-color:#8444FB"/>
</linearGradient>
<rect x="-0.4" y="-0.3" class="st0" width="210" height="210"/>
<g>
	<path class="st1" d="M79.1,82.5c-3.4,2-5.6,5.7-5.6,9.6v26.8c0,4,2.1,7.7,5.6,9.6l23.2,13.4l0.2,0.1c0.4,0.2,0.9,0.3,1.3,0.3
		c0.5,0,1-0.1,1.4-0.4c0.9-0.5,1.4-1.4,1.4-2.4v-1.8l-0.7-0.2c-0.3-0.1-0.6-0.2-0.8-0.4l-23.2-13.4c-1.7-1-2.8-2.9-2.8-4.9V92.2
		c0-2,1.1-3.9,2.8-4.9L105,73.9c1.7-1,3.9-1,5.6,0l5.5,3.2c-0.1,0.8,0,1.5,0.3,2.3c0.6,1.9,2.2,3.3,4.1,3.7c1.9,0.4,3.9-0.1,5.3-1.4
		c1.4-1.3,2-3.2,1.7-5.2c-0.4-2.3-2.1-4.1-4.4-4.6c-1.4-0.3-2.8-0.1-4,0.6l-5.8-3.3c-3.4-2-7.7-2-11.1,0L79.1,82.5z"/>
	<path class="st1" d="M110.2,137.4c-1,0.5-1.7,1.4-1.7,2.5c0,0.9,0.5,1.8,1.3,2.3c0.5,0.3,1,0.4,1.5,0.4c0.4,0,0.7-0.1,1.1-0.2
		c0.3-0.2,0.7-0.3,1-0.5l19.2-11.1c1.1-0.7,1.9-1.8,2.1-3.1c0.2-1.3-0.3-2.6-1.2-3.5l-5-5c-1.3-1.3-3.4-1.6-5.1-0.7l-15.4,8.9
		c-0.1,0.1-0.3,0.1-0.4,0l-18.7-10.8c-0.1-0.1-0.2-0.2-0.2-0.3V98c0-1-0.6-2-1.5-2.4c-0.9-0.5-1.9-0.4-2.7,0.1
		c-0.8,0.5-1.3,1.4-1.3,2.4v18.3c0,2.1,1.1,4.1,3,5.1l18.7,10.8c1.8,1.1,4.1,1.1,5.9,0l15.5-9l2.8,3.2l-18.5,10.7
		C110.5,137.2,110.4,137.3,110.2,137.4z"/>
	<path class="st1" d="M110.6,63.4L110.6,63.4c0.9,0.2,1.7,0.6,2.5,1L135,77.1c-2.6,2.7-7,7.4-9.6,10.1l-14.6-8.4
		c-1.8-1.1-4.1-1.1-5.9,0L86.1,89.7c-1.1,0.8-1.4,2.1-0.8,3.1c0.5,0.8,1.5,1.3,2.7,1.3c0.8,0,1.7-0.2,2.7-0.8l16.9-9.7
		c0.1-0.1,0.3-0.1,0.4,0l15.2,8.8c1.7,1,3.9,0.7,5.3-0.7l11.6-11.6c1-1,1.4-2.3,1.2-3.7c-0.2-1.4-1-2.5-2.1-3.2l-23.4-13.5
		c-1.2-0.7-2.5-1.2-3.8-1.6c-0.8-0.2-1.7-0.1-2.4,0.5c-0.7,0.5-1.1,1.3-1.1,2.2C108.5,62,109.4,63.1,110.6,63.4z"/>
	<path class="st1" d="M70.3,125c-0.4-1.1-0.6-2.3-0.6-3.5v-32c0-3.7,2-7.2,5.3-9.1l27.7-16c0.6-0.4,1.3-0.6,2-0.9
		c1.2-0.4,2-1.4,2-2.6c0-0.9-0.4-1.7-1.1-2.2c-0.7-0.5-1.6-0.7-2.5-0.4c-1.1,0.3-2.1,0.8-3.1,1.4l-27.7,16c-4.9,2.9-8,8.2-8,13.9v32
		c0,1.8,0.3,3.6,0.9,5.4c0.3,0.8,0.9,1.4,1.7,1.7c0.3,0.1,0.6,0.2,0.9,0.2c0.5,0,1-0.1,1.4-0.4C70.2,127.7,70.7,126.3,70.3,125z"/>
	<path class="st1" d="M144.7,130.1c-1.1-1.3-2.7-2.1-4.4-2.1c0,0,0,0-0.1,0c-1.5,0-2.9,0.7-4,1.8c-1.6,1.8-1.8,3.3-1.7,4.5
		l-21.4,12.4c-3.2,1.9-7.3,1.9-10.5,0l-27.7-16c-0.4-0.2-0.7-0.4-1.1-0.7c-0.9-0.7-2.1-0.8-3.1-0.2c-0.8,0.5-1.3,1.3-1.4,2.2
		c-0.1,0.9,0.3,1.8,1,2.3c0.5,0.4,1.1,0.8,1.7,1.2l27.7,16c2.5,1.4,5.2,2.1,8,2.1s5.5-0.7,8-2.1l21.8-12.6c1.1,0.6,2.4,0.7,3.6,0.5
		c2.3-0.4,4.2-2.2,4.6-4.5C146.2,133.1,145.7,131.4,144.7,130.1z"/>
</g>
</svg>
