<?xml version="1.0" encoding="utf-8"?>
<!-- Generator: Adobe Illustrator 22.1.0, SVG Export Plug-In . SVG Version: 6.00 Build 0)  -->
<svg version="1.1" id="Layer_1" xmlns="http://www.w3.org/2000/svg" xmlns:xlink="http://www.w3.org/1999/xlink" x="0px" y="0px"
	 viewBox="0 0 500 500" style="enable-background:new 0 0 500 500;" xml:space="preserve">
<style type="text/css">
	.st0{fill:#FFFFFF;}
</style>
<g>
	<path class="st0" d="M271.5,418h14.1v-74.5h95.1V80H117.2v263.5h95.1V418h14.1v-74.5h15.4V418h14.1v-74.5h15.4V418H271.5z
		 M134.9,325.8V97.7h228.2v228.2H134.9V325.8z"/>
	<path class="st0" d="M168.3,191.7c0,44.5,36.2,80.6,80.7,80.6s80.6-36.2,80.6-80.6S293.5,111,249,111S168.3,147.2,168.3,191.7z
		 M312,191.7c0,34.7-28.2,63-63,63s-63-28.2-63-63s28.2-63,63-63S312,157,312,191.7z"/>
	<path class="st0" d="M203,192.1c0,25.4,20.6,46,46,46s46-20.6,46-46s-20.6-46-46-46S203,166.7,203,192.1z M286.1,192.1
		c0,20.5-16.7,37.1-37.1,37.1c-20.5,0-37.1-16.7-37.1-37.1S228.6,155,249,155C269.5,154.9,286.1,171.6,286.1,192.1z"/>
	<path class="st0" d="M225.1,192.1c0,14,11.4,25.4,25.4,25.4s25.4-11.4,25.4-25.4s-11.4-25.4-25.4-25.4S225.1,178.1,225.1,192.1z
		 M267.1,192.1c0,9.1-7.4,16.5-16.5,16.5s-16.5-7.4-16.5-16.5s7.4-16.5,16.5-16.5C259.6,175.5,267.1,182.9,267.1,192.1z"/>
</g>
</svg>
