<?xml version="1.0" encoding="utf-8"?>
<!-- Generator: Adobe Illustrator 22.1.0, SVG Export Plug-In . SVG Version: 6.00 Build 0)  -->
<svg version="1.1" id="Layer_1" xmlns="http://www.w3.org/2000/svg" xmlns:xlink="http://www.w3.org/1999/xlink" x="0px" y="0px"
	 viewBox="0 0 500 500" style="enable-background:new 0 0 500 500;" xml:space="preserve">
<style type="text/css">
	.st0{fill:#0EBCE6;}
	.st1{fill:#FFFFFF;}
</style>
<rect y="0" class="st0" width="500" height="500"/>
<g>
	<polygon class="st1" points="334,324 334,235.3 166,235.3 166,373.7 195.2,373.7 195.2,447 211.3,447 211.3,373.7 285.7,373.7 
		285.7,430.9 301.8,430.9 301.8,373.7 334,373.7 334,340.3 166,340.3 166,324 	"/>
</g>
<g>
	<path class="st1" d="M290.5,211.8c-2.9,0-5.9-1.1-8.1-3.4c-17.9-17.9-46.9-17.9-64.8,0c-4.5,4.5-11.7,4.5-16.2,0s-4.5-11.7,0-16.2
		c26.8-26.8,70.4-26.8,97.2,0c4.5,4.5,4.5,11.7,0,16.2C296.4,210.6,293.4,211.8,290.5,211.8z"/>
</g>
<g>
	<path class="st1" d="M317.8,172.8c-2.9,0-5.9-1.1-8.1-3.4c-32.9-32.9-86.5-32.9-119.4,0c-4.5,4.5-11.7,4.5-16.2,0s-4.5-11.7,0-16.2
		c41.8-41.8,109.9-41.8,151.8,0c4.5,4.5,4.5,11.7,0,16.2C323.6,171.7,320.7,172.8,317.8,172.8z"/>
</g>
<g>
	<path class="st1" d="M353.1,141.1c-2.9,0-5.9-1.1-8.1-3.4c-25.4-25.4-59.1-39.3-95-39.3s-69.6,14-95,39.3c-4.5,4.5-11.7,4.5-16.2,0
		s-4.5-11.7,0-16.2c29.7-29.7,69.2-46,111.2-46s81.5,16.4,111.2,46c4.5,4.5,4.5,11.7,0,16.2C358.9,140,356,141.1,353.1,141.1z"/>
</g>
</svg>
