<?xml version="1.0" encoding="utf-8"?>
<!-- Generator: Adobe Illustrator 22.1.0, SVG Export Plug-In . SVG Version: 6.00 Build 0)  -->
<svg version="1.1" id="Layer_1" xmlns="http://www.w3.org/2000/svg" xmlns:xlink="http://www.w3.org/1999/xlink" x="0px" y="0px"
	 viewBox="0 0 500 500" style="enable-background:new 0 0 500 500;" xml:space="preserve">
<style type="text/css">
	.st0{fill:#0EBCE6;}
	.st1{fill:#FFFFFF;}
</style>
<rect y="0" class="st0" width="500" height="500"/>
<g>
	<path class="st1" d="M52.2,315h143.6v61.2h11.6V315H220v61.2h11.6V315h12.6v61.2h11.6V315h12.6v61.2H280V315h12.6v61.2h11.6V315
		h143.6V123.8H52.2V315z M433.5,138.2v162.3H66.7V138.2H433.5z"/>
	<path class="st1" d="M218,225.1c0-36.5-29.7-66.2-66.2-66.2s-66.2,29.7-66.2,66.2s29.7,66.2,66.2,66.2S218,261.5,218,225.1z
		 M100.1,225.1c0-28.5,23.2-51.7,51.7-51.7s51.7,23.2,51.7,51.7s-23.2,51.7-51.7,51.7S100.1,253.5,100.1,225.1z"/>
	<path class="st1" d="M230.1,191.8h38.6c12.5,0,22.8-10.2,22.8-22.8s-10.2-22.8-22.8-22.8h-38.6c-12.5,0-22.8,10.2-22.8,22.8
		S217.6,191.8,230.1,191.8z M230.1,160.8h38.6c4.5,0,8.2,3.7,8.2,8.2s-3.7,8.2-8.2,8.2h-38.6c-4.5,0-8.2-3.7-8.2-8.2
		S225.6,160.8,230.1,160.8z"/>
	<path class="st1" d="M414.6,225.1c0-36.5-29.7-66.2-66.2-66.2s-66.2,29.7-66.2,66.2s29.7,66.2,66.2,66.2S414.6,261.5,414.6,225.1z
		 M296.7,225.1c0-28.5,23.2-51.7,51.7-51.7s51.7,23.2,51.7,51.7s-23.2,51.7-51.7,51.7S296.7,253.5,296.7,225.1z"/>
</g>
</svg>
